<svg width="264" height="17" viewBox="0 0 264 17" fill="none" xmlns="http://www.w3.org/2000/svg">
<path d="M0.656 13V1.1H2.832V11.3H8.102V13H0.656ZM11.1413 3.259C10.7446 3.259 10.4159 3.14 10.1553 2.902C9.90595 2.664 9.78128 2.36367 9.78128 2.001C9.78128 1.63833 9.90595 1.34367 10.1553 1.117C10.4159 0.878999 10.7446 0.76 11.1413 0.76C11.5379 0.76 11.8609 0.878999 12.1103 1.117C12.3709 1.34367 12.5013 1.63833 12.5013 2.001C12.5013 2.36367 12.3709 2.664 12.1103 2.902C11.8609 3.14 11.5379 3.259 11.1413 3.259ZM10.0533 13V4.568H12.2293V13H10.0533ZM17.9855 13.204C17.2375 13.204 16.5802 13.085 16.0135 12.847C15.4468 12.5977 14.9935 12.2577 14.6535 11.827C14.3135 11.3963 14.1095 10.8977 14.0415 10.331H16.2345C16.3025 10.6597 16.4838 10.943 16.7785 11.181C17.0845 11.4077 17.4755 11.521 17.9515 11.521C18.4275 11.521 18.7732 11.4247 18.9885 11.232C19.2152 11.0393 19.3285 10.8183 19.3285 10.569C19.3285 10.2063 19.1698 9.96267 18.8525 9.838C18.5352 9.702 18.0932 9.57167 17.5265 9.447C17.1638 9.36767 16.7955 9.27133 16.4215 9.158C16.0475 9.04467 15.7018 8.903 15.3845 8.733C15.0785 8.55167 14.8292 8.325 14.6365 8.053C14.4438 7.76967 14.3475 7.424 14.3475 7.016C14.3475 6.268 14.6422 5.639 15.2315 5.129C15.8322 4.619 16.6708 4.364 17.7475 4.364C18.7448 4.364 19.5382 4.59633 20.1275 5.061C20.7282 5.52567 21.0852 6.166 21.1985 6.982H19.1415C19.0168 6.35867 18.5465 6.047 17.7305 6.047C17.3225 6.047 17.0052 6.12633 16.7785 6.285C16.5632 6.44367 16.4555 6.642 16.4555 6.88C16.4555 7.12933 16.6198 7.32767 16.9485 7.475C17.2772 7.62233 17.7135 7.75833 18.2575 7.883C18.8468 8.019 19.3852 8.172 19.8725 8.342C20.3712 8.50067 20.7678 8.74433 21.0625 9.073C21.3572 9.39033 21.5045 9.84933 21.5045 10.45C21.5158 10.9713 21.3798 11.4417 21.0965 11.861C20.8132 12.2803 20.4052 12.609 19.8725 12.847C19.3398 13.085 18.7108 13.204 17.9855 13.204ZM26.9235 13C26.0395 13 25.3312 12.7847 24.7985 12.354C24.2659 11.9233 23.9995 11.1583 23.9995 10.059V6.387H22.5545V4.568H23.9995L24.2545 2.307H26.1755V4.568H28.4535V6.387H26.1755V10.076C26.1755 10.484 26.2605 10.7673 26.4305 10.926C26.6119 11.0733 26.9179 11.147 27.3485 11.147H28.4025V13H26.9235ZM34.203 13.204C33.353 13.204 32.5993 13.0227 31.942 12.66C31.2846 12.2973 30.769 11.7873 30.395 11.13C30.021 10.4727 29.834 9.71333 29.834 8.852C29.834 7.97933 30.0153 7.203 30.378 6.523C30.752 5.843 31.262 5.316 31.908 4.942C32.5653 4.55667 33.336 4.364 34.22 4.364C35.0473 4.364 35.7783 4.54533 36.413 4.908C37.0476 5.27067 37.5406 5.76933 37.892 6.404C38.2546 7.02733 38.436 7.72433 38.436 8.495C38.436 8.61967 38.4303 8.75 38.419 8.886C38.419 9.022 38.4133 9.16367 38.402 9.311H31.993C32.0383 9.96833 32.265 10.484 32.673 10.858C33.0923 11.232 33.5966 11.419 34.186 11.419C34.628 11.419 34.9963 11.3227 35.291 11.13C35.597 10.926 35.8236 10.6653 35.971 10.348H38.181C38.0223 10.8807 37.756 11.368 37.382 11.81C37.0193 12.2407 36.566 12.5807 36.022 12.83C35.4893 13.0793 34.883 13.204 34.203 13.204ZM34.22 6.132C33.6873 6.132 33.217 6.285 32.809 6.591C32.401 6.88567 32.1403 7.339 32.027 7.951H36.226C36.192 7.39567 35.988 6.95367 35.614 6.625C35.24 6.29633 34.7753 6.132 34.22 6.132ZM40.2661 13V4.568H42.1871L42.3571 5.996C42.6178 5.49733 42.9918 5.10067 43.4791 4.806C43.9778 4.51133 44.5615 4.364 45.2301 4.364C46.2728 4.364 47.0831 4.69267 47.6611 5.35C48.2391 6.00733 48.5281 6.97067 48.5281 8.24V13H46.3521V8.444C46.3521 7.71867 46.2048 7.16333 45.9101 6.778C45.6155 6.39267 45.1565 6.2 44.5331 6.2C43.9211 6.2 43.4168 6.41533 43.0201 6.846C42.6348 7.27667 42.4421 7.87733 42.4421 8.648V13H40.2661ZM51.7819 3.259C51.3852 3.259 51.0566 3.14 50.7959 2.902C50.5466 2.664 50.4219 2.36367 50.4219 2.001C50.4219 1.63833 50.5466 1.34367 50.7959 1.117C51.0566 0.878999 51.3852 0.76 51.7819 0.76C52.1786 0.76 52.5016 0.878999 52.7509 1.117C53.0116 1.34367 53.1419 1.63833 53.1419 2.001C53.1419 2.36367 53.0116 2.664 52.7509 2.902C52.5016 3.14 52.1786 3.259 51.7819 3.259ZM50.6939 13V4.568H52.8699V13H50.6939ZM55.1411 13V4.568H57.0621L57.2321 5.996C57.4928 5.49733 57.8668 5.10067 58.3541 4.806C58.8528 4.51133 59.4365 4.364 60.1051 4.364C61.1478 4.364 61.9581 4.69267 62.5361 5.35C63.1141 6.00733 63.4031 6.97067 63.4031 8.24V13H61.2271V8.444C61.2271 7.71867 61.0798 7.16333 60.7851 6.778C60.4905 6.39267 60.0315 6.2 59.4081 6.2C58.7961 6.2 58.2918 6.41533 57.8951 6.846C57.5098 7.27667 57.3171 7.87733 57.3171 8.648V13H55.1411ZM69.0539 10.484C68.6459 10.484 68.2662 10.4387 67.9149 10.348L67.2859 10.977C67.4786 11.079 67.7392 11.164 68.0679 11.232C68.3966 11.3 68.9292 11.368 69.6659 11.436C70.7879 11.538 71.6039 11.8043 72.1139 12.235C72.6239 12.6657 72.8789 13.2607 72.8789 14.02C72.8789 14.5187 72.7429 14.989 72.4709 15.431C72.1989 15.8843 71.7796 16.247 71.2129 16.519C70.6462 16.8023 69.9209 16.944 69.0369 16.944C67.8356 16.944 66.8666 16.7173 66.1299 16.264C65.3932 15.822 65.0249 15.1533 65.0249 14.258C65.0249 13.4987 65.3932 12.8413 66.1299 12.286C65.9032 12.184 65.7049 12.0763 65.5349 11.963C65.3762 11.8497 65.2346 11.7307 65.1099 11.606V11.215L66.5889 9.651C65.9316 9.073 65.6029 8.33067 65.6029 7.424C65.6029 6.85733 65.7389 6.34167 66.0109 5.877C66.2942 5.41233 66.6909 5.044 67.2009 4.772C67.7109 4.5 68.3286 4.364 69.0539 4.364C69.5299 4.364 69.9719 4.432 70.3799 4.568H73.5759V5.894L72.1309 5.996C72.3576 6.42667 72.4709 6.90267 72.4709 7.424C72.4709 7.99067 72.3349 8.50633 72.0629 8.971C71.7909 9.43567 71.3942 9.804 70.8729 10.076C70.3629 10.348 69.7566 10.484 69.0539 10.484ZM69.0539 8.818C69.4959 8.818 69.8586 8.699 70.1419 8.461C70.4366 8.223 70.5839 7.883 70.5839 7.441C70.5839 6.999 70.4366 6.659 70.1419 6.421C69.8586 6.183 69.4959 6.064 69.0539 6.064C68.5892 6.064 68.2152 6.183 67.9319 6.421C67.6486 6.659 67.5069 6.999 67.5069 7.441C67.5069 7.883 67.6486 8.223 67.9319 8.461C68.2152 8.699 68.5892 8.818 69.0539 8.818ZM67.0139 14.037C67.0139 14.4563 67.2066 14.768 67.5919 14.972C67.9886 15.1873 68.4702 15.295 69.0369 15.295C69.5809 15.295 70.0229 15.1817 70.3629 14.955C70.7029 14.7397 70.8729 14.445 70.8729 14.071C70.8729 13.765 70.7596 13.51 70.5329 13.306C70.3176 13.102 69.8812 12.9773 69.2239 12.932C68.7592 12.898 68.3286 12.847 67.9319 12.779C67.6032 12.9603 67.3652 13.1587 67.2179 13.374C67.0819 13.5893 67.0139 13.8103 67.0139 14.037ZM83.2594 13.204C82.4434 13.204 81.7067 13.017 81.0494 12.643C80.4034 12.269 79.8877 11.7533 79.5024 11.096C79.1284 10.4273 78.9414 9.65667 78.9414 8.784C78.9414 7.91133 79.1341 7.14633 79.5194 6.489C79.9047 5.82033 80.4204 5.299 81.0664 4.925C81.7237 4.551 82.4604 4.364 83.2764 4.364C84.0811 4.364 84.8064 4.551 85.4524 4.925C86.1097 5.299 86.6254 5.82033 86.9994 6.489C87.3847 7.14633 87.5774 7.91133 87.5774 8.784C87.5774 9.65667 87.3847 10.4273 86.9994 11.096C86.6254 11.7533 86.1097 12.269 85.4524 12.643C84.7951 13.017 84.0641 13.204 83.2594 13.204ZM83.2594 11.317C83.8261 11.317 84.3191 11.1073 84.7384 10.688C85.1577 10.2573 85.3674 9.62267 85.3674 8.784C85.3674 7.94533 85.1577 7.31633 84.7384 6.897C84.3191 6.46633 83.8317 6.251 83.2764 6.251C82.6984 6.251 82.1997 6.46633 81.7804 6.897C81.3724 7.31633 81.1684 7.94533 81.1684 8.784C81.1684 9.62267 81.3724 10.2573 81.7804 10.688C82.1997 11.1073 82.6927 11.317 83.2594 11.317ZM89.523 13V4.568H91.444L91.614 5.996C91.8746 5.49733 92.2486 5.10067 92.736 4.806C93.2346 4.51133 93.8183 4.364 94.487 4.364C95.5296 4.364 96.34 4.69267 96.918 5.35C97.496 6.00733 97.785 6.97067 97.785 8.24V13H95.609V8.444C95.609 7.71867 95.4616 7.16333 95.167 6.778C94.8723 6.39267 94.4133 6.2 93.79 6.2C93.178 6.2 92.6736 6.41533 92.277 6.846C91.8916 7.27667 91.699 7.87733 91.699 8.648V13H89.523ZM103.203 13L107.555 1.1H110.003L114.355 13H112.043L111.091 10.246H106.45L105.481 13H103.203ZM107.045 8.546H110.496L108.762 3.599L107.045 8.546ZM119.95 13.204C119.078 13.204 118.307 13.0567 117.638 12.762C116.97 12.456 116.443 12.0253 116.057 11.47C115.672 10.9033 115.474 10.2177 115.462 9.413H117.757C117.78 9.96833 117.978 10.4387 118.352 10.824C118.738 11.198 119.265 11.385 119.933 11.385C120.511 11.385 120.97 11.249 121.31 10.977C121.65 10.6937 121.82 10.3197 121.82 9.855C121.82 9.36767 121.667 8.988 121.361 8.716C121.067 8.444 120.67 8.223 120.171 8.053C119.673 7.883 119.14 7.70167 118.573 7.509C117.655 7.19167 116.953 6.78367 116.465 6.285C115.989 5.78633 115.751 5.12333 115.751 4.296C115.74 3.59333 115.904 2.99267 116.244 2.494C116.596 1.984 117.072 1.593 117.672 1.321C118.273 1.03767 118.964 0.896 119.746 0.896C120.54 0.896 121.237 1.03767 121.837 1.321C122.449 1.60433 122.925 2.001 123.265 2.511C123.617 3.021 123.804 3.62733 123.826 4.33H121.497C121.486 3.91067 121.322 3.54233 121.004 3.225C120.698 2.89633 120.268 2.732 119.712 2.732C119.236 2.72067 118.834 2.83967 118.505 3.089C118.188 3.327 118.029 3.67833 118.029 4.143C118.029 4.53967 118.154 4.857 118.403 5.095C118.653 5.32167 118.993 5.51433 119.423 5.673C119.854 5.83167 120.347 6.00167 120.902 6.183C121.492 6.387 122.03 6.625 122.517 6.897C123.005 7.169 123.396 7.53167 123.69 7.985C123.985 8.427 124.132 8.99933 124.132 9.702C124.132 10.3253 123.974 10.9033 123.656 11.436C123.339 11.9687 122.869 12.3993 122.245 12.728C121.622 13.0453 120.857 13.204 119.95 13.204ZM130.621 13.204C129.748 13.204 128.961 13.034 128.258 12.694C127.555 12.3427 126.994 11.8157 126.575 11.113C126.167 10.4103 125.963 9.52067 125.963 8.444V1.1H128.139V8.461C128.139 9.39033 128.36 10.0817 128.802 10.535C129.255 10.9883 129.879 11.215 130.672 11.215C131.454 11.215 132.072 10.9883 132.525 10.535C132.978 10.0817 133.205 9.39033 133.205 8.461V1.1H135.381V8.444C135.381 9.52067 135.166 10.4103 134.735 11.113C134.304 11.8157 133.726 12.3427 133.001 12.694C132.287 13.034 131.494 13.204 130.621 13.204ZM141.665 13.204C140.793 13.204 140.022 13.0567 139.353 12.762C138.685 12.456 138.158 12.0253 137.772 11.47C137.387 10.9033 137.189 10.2177 137.177 9.413H139.472C139.495 9.96833 139.693 10.4387 140.067 10.824C140.453 11.198 140.98 11.385 141.648 11.385C142.226 11.385 142.685 11.249 143.025 10.977C143.365 10.6937 143.535 10.3197 143.535 9.855C143.535 9.36767 143.382 8.988 143.076 8.716C142.782 8.444 142.385 8.223 141.886 8.053C141.388 7.883 140.855 7.70167 140.288 7.509C139.37 7.19167 138.668 6.78367 138.18 6.285C137.704 5.78633 137.466 5.12333 137.466 4.296C137.455 3.59333 137.619 2.99267 137.959 2.494C138.311 1.984 138.787 1.593 139.387 1.321C139.988 1.03767 140.679 0.896 141.461 0.896C142.255 0.896 142.952 1.03767 143.552 1.321C144.164 1.60433 144.64 2.001 144.98 2.511C145.332 3.021 145.519 3.62733 145.541 4.33H143.212C143.201 3.91067 143.037 3.54233 142.719 3.225C142.413 2.89633 141.983 2.732 141.427 2.732C140.951 2.72067 140.549 2.83967 140.22 3.089C139.903 3.327 139.744 3.67833 139.744 4.143C139.744 4.53967 139.869 4.857 140.118 5.095C140.368 5.32167 140.708 5.51433 141.138 5.673C141.569 5.83167 142.062 6.00167 142.617 6.183C143.207 6.387 143.745 6.625 144.232 6.897C144.72 7.169 145.111 7.53167 145.405 7.985C145.7 8.427 145.847 8.99933 145.847 9.702C145.847 10.3253 145.689 10.9033 145.371 11.436C145.054 11.9687 144.584 12.3993 143.96 12.728C143.337 13.0453 142.572 13.204 141.665 13.204ZM147.508 8.988V7.169H154.631V8.988H147.508ZM156.711 13V1.1H161.08C162.032 1.1 162.814 1.26433 163.426 1.593C164.049 1.91033 164.514 2.34667 164.82 2.902C165.126 3.446 165.279 4.05233 165.279 4.721C165.279 5.44633 165.086 6.10933 164.701 6.71C164.327 7.31067 163.737 7.747 162.933 8.019L165.398 13H162.899L160.689 8.308H158.887V13H156.711ZM158.887 6.71H160.944C161.669 6.71 162.202 6.53433 162.542 6.183C162.882 5.83167 163.052 5.367 163.052 4.789C163.052 4.22233 162.882 3.769 162.542 3.429C162.213 3.089 161.675 2.919 160.927 2.919H158.887V6.71ZM172.878 13.204C171.688 13.204 170.646 12.9433 169.75 12.422C168.866 11.9007 168.169 11.181 167.659 10.263C167.161 9.33367 166.911 8.26267 166.911 7.05C166.911 5.83733 167.161 4.772 167.659 3.854C168.169 2.92467 168.866 2.19933 169.75 1.678C170.646 1.15667 171.688 0.896 172.878 0.896C174.057 0.896 175.094 1.15667 175.989 1.678C176.885 2.19933 177.582 2.92467 178.08 3.854C178.579 4.772 178.828 5.83733 178.828 7.05C178.828 8.26267 178.579 9.33367 178.08 10.263C177.582 11.181 176.885 11.9007 175.989 12.422C175.094 12.9433 174.057 13.204 172.878 13.204ZM172.878 11.249C174.012 11.249 174.913 10.875 175.581 10.127C176.261 9.379 176.601 8.35333 176.601 7.05C176.601 5.74667 176.261 4.721 175.581 3.973C174.913 3.225 174.012 2.851 172.878 2.851C171.745 2.851 170.838 3.225 170.158 3.973C169.478 4.721 169.138 5.74667 169.138 7.05C169.138 8.35333 169.478 9.379 170.158 10.127C170.838 10.875 171.745 11.249 172.878 11.249ZM185.952 13.204C184.83 13.204 183.849 12.949 183.011 12.439C182.172 11.929 181.52 11.2207 181.056 10.314C180.591 9.396 180.359 8.33067 180.359 7.118C180.359 5.894 180.597 4.81733 181.073 3.888C181.56 2.94733 182.246 2.21633 183.13 1.695C184.025 1.16233 185.085 0.896 186.309 0.896C187.703 0.896 188.859 1.23033 189.777 1.899C190.695 2.56767 191.29 3.49133 191.562 4.67H189.131C188.949 4.11467 188.621 3.684 188.145 3.378C187.669 3.06067 187.057 2.902 186.309 2.902C185.119 2.902 184.201 3.28167 183.555 4.041C182.909 4.789 182.586 5.82033 182.586 7.135C182.586 8.44967 182.903 9.46967 183.538 10.195C184.184 10.909 185.056 11.266 186.156 11.266C187.232 11.266 188.043 10.977 188.587 10.399C189.142 9.80967 189.476 9.039 189.59 8.087H186.581V6.455H191.783V13H189.777L189.607 11.436C189.221 12.0027 188.74 12.439 188.162 12.745C187.584 13.051 186.847 13.204 185.952 13.204ZM193.66 8.988V7.169H200.783V8.988H193.66ZM208.065 13.204C206.943 13.204 205.963 12.949 205.124 12.439C204.285 11.929 203.634 11.2207 203.169 10.314C202.704 9.396 202.472 8.33067 202.472 7.118C202.472 5.894 202.71 4.81733 203.186 3.888C203.673 2.94733 204.359 2.21633 205.243 1.695C206.138 1.16233 207.198 0.896 208.422 0.896C209.816 0.896 210.972 1.23033 211.89 1.899C212.808 2.56767 213.403 3.49133 213.675 4.67H211.244C211.063 4.11467 210.734 3.684 210.258 3.378C209.782 3.06067 209.17 2.902 208.422 2.902C207.232 2.902 206.314 3.28167 205.668 4.041C205.022 4.789 204.699 5.82033 204.699 7.135C204.699 8.44967 205.016 9.46967 205.651 10.195C206.297 10.909 207.17 11.266 208.269 11.266C209.346 11.266 210.156 10.977 210.7 10.399C211.255 9.80967 211.59 9.039 211.703 8.087H208.694V6.455H213.896V13H211.89L211.72 11.436C211.335 12.0027 210.853 12.439 210.275 12.745C209.697 13.051 208.96 13.204 208.065 13.204ZM220.278 13.204C219.406 13.204 218.652 13.051 218.017 12.745C217.394 12.439 216.901 12.0197 216.538 11.487C216.187 10.943 215.983 10.331 215.926 9.651H218.051C218.153 10.1383 218.403 10.5463 218.799 10.875C219.196 11.1923 219.689 11.351 220.278 11.351C220.913 11.351 221.429 11.1187 221.825 10.654C222.233 10.1893 222.437 9.61133 222.437 8.92C222.437 8.206 222.233 7.63933 221.825 7.22C221.429 6.80067 220.924 6.591 220.312 6.591C219.802 6.591 219.36 6.71567 218.986 6.965C218.612 7.21433 218.346 7.526 218.187 7.9H216.096L217.116 1.1H223.712V3.004H218.748L218.204 5.758C218.454 5.486 218.794 5.265 219.224 5.095C219.655 4.91367 220.137 4.823 220.669 4.823C221.519 4.823 222.228 5.01567 222.794 5.401C223.361 5.775 223.792 6.27367 224.086 6.897C224.381 7.509 224.528 8.17767 224.528 8.903C224.528 9.73033 224.347 10.467 223.984 11.113C223.633 11.759 223.134 12.269 222.488 12.643C221.854 13.017 221.117 13.204 220.278 13.204ZM230.446 13.204C229.664 13.204 228.956 13.068 228.321 12.796C227.687 12.5127 227.177 12.082 226.791 11.504C226.406 10.926 226.202 10.2007 226.179 9.328H228.321C228.333 9.906 228.52 10.3933 228.882 10.79C229.256 11.1753 229.778 11.368 230.446 11.368C231.081 11.368 231.568 11.1923 231.908 10.841C232.248 10.4897 232.418 10.0477 232.418 9.515C232.418 8.89167 232.192 8.42133 231.738 8.104C231.296 7.77533 230.724 7.611 230.021 7.611H229.137V5.826H230.038C230.616 5.826 231.098 5.69 231.483 5.418C231.869 5.146 232.061 4.74367 232.061 4.211C232.061 3.769 231.914 3.41767 231.619 3.157C231.336 2.885 230.939 2.749 230.429 2.749C229.874 2.749 229.438 2.91333 229.12 3.242C228.814 3.57067 228.644 3.973 228.61 4.449H226.485C226.531 3.34967 226.91 2.48267 227.624 1.848C228.35 1.21333 229.285 0.896 230.429 0.896C231.245 0.896 231.931 1.04333 232.486 1.338C233.053 1.62133 233.478 2.001 233.761 2.477C234.056 2.953 234.203 3.48 234.203 4.058C234.203 4.72667 234.016 5.29333 233.642 5.758C233.28 6.21133 232.826 6.51733 232.282 6.676C232.951 6.812 233.495 7.14067 233.914 7.662C234.334 8.172 234.543 8.818 234.543 9.6C234.543 10.2573 234.385 10.858 234.067 11.402C233.75 11.946 233.285 12.3823 232.673 12.711C232.073 13.0397 231.33 13.204 230.446 13.204ZM237.823 13V3.582L235.868 4.041V2.375L238.741 1.1H240.084V13H237.823ZM247.593 13.204C246.471 13.204 245.491 12.949 244.652 12.439C243.814 11.929 243.162 11.2207 242.697 10.314C242.233 9.396 242 8.33067 242 7.118C242 5.894 242.238 4.81733 242.714 3.888C243.202 2.94733 243.887 2.21633 244.771 1.695C245.667 1.16233 246.726 0.896 247.95 0.896C249.344 0.896 250.5 1.23033 251.418 1.899C252.336 2.56767 252.931 3.49133 253.203 4.67H250.772C250.591 4.11467 250.262 3.684 249.786 3.378C249.31 3.06067 248.698 2.902 247.95 2.902C246.76 2.902 245.842 3.28167 245.196 4.041C244.55 4.789 244.227 5.82033 244.227 7.135C244.227 8.44967 244.545 9.46967 245.179 10.195C245.825 10.909 246.698 11.266 247.797 11.266C248.874 11.266 249.684 10.977 250.228 10.399C250.784 9.80967 251.118 9.039 251.231 8.087H248.222V6.455H253.424V13H251.418L251.248 11.436C250.863 12.0027 250.381 12.439 249.803 12.745C249.225 13.051 248.489 13.204 247.593 13.204ZM258.311 13V2.851H254.843V1.1H263.972V2.851H260.487V13H258.311Z" fill="black"/>
</svg>
